<svg width="512" height="512" viewBox="0 0 512 512" fill="none" xmlns="http://www.w3.org/2000/svg">
<g clip-path="url(#clip0_0_1)">
<path d="M490.667 469.333H469.333V298.667C469.299 270.387 458.051 243.276 438.054 223.279C418.057 203.283 390.946 192.034 362.667 192H277.333V128.832C286.837 124.684 294.925 117.856 300.609 109.183C306.292 100.511 309.324 90.3691 309.333 80C303.57 52.7312 290.588 27.5111 271.744 6.97598C269.745 4.78994 267.313 3.04411 264.602 1.84968C261.892 0.655249 258.962 0.0383911 256 0.0383911C253.038 0.0383911 250.108 0.655249 247.398 1.84968C244.687 3.04411 242.255 4.78994 240.256 6.97598C221.412 27.5111 208.43 52.7312 202.667 80C202.676 90.3691 205.708 100.511 211.392 109.183C217.075 117.856 225.163 124.684 234.667 128.832V192H149.333C121.054 192.034 93.9426 203.283 73.946 223.279C53.9495 243.276 42.7005 270.387 42.6667 298.667V469.333H21.3333C15.6754 469.333 10.2492 471.581 6.24839 475.582C2.24761 479.582 0 485.009 0 490.667C0 496.325 2.24761 501.751 6.24839 505.752C10.2492 509.752 15.6754 512 21.3333 512H490.667C496.325 512 501.751 509.752 505.752 505.752C509.752 501.751 512 496.325 512 490.667C512 485.009 509.752 479.582 505.752 475.582C501.751 471.581 496.325 469.333 490.667 469.333ZM149.333 234.667H362.667C379.641 234.667 395.919 241.409 407.922 253.412C419.924 265.414 426.667 281.693 426.667 298.667V340.907C406.699 338.773 394.667 325.973 394.667 320C394.667 314.342 392.419 308.916 388.418 304.915C384.418 300.914 378.991 298.667 373.333 298.667C367.675 298.667 362.249 300.914 358.248 304.915C354.248 308.916 352 314.342 352 320C352 327.317 337.451 341.333 314.667 341.333C291.435 341.333 277.333 326.528 277.333 320C277.333 314.342 275.086 308.916 271.085 304.915C267.084 300.914 261.658 298.667 256 298.667C250.342 298.667 244.916 300.914 240.915 304.915C236.914 308.916 234.667 314.342 234.667 320C234.667 327.317 220.117 341.333 197.333 341.333C174.101 341.333 160 326.528 160 320C160 314.342 157.752 308.916 153.752 304.915C149.751 300.914 144.325 298.667 138.667 298.667C133.009 298.667 127.583 300.914 123.582 304.915C119.581 308.916 117.333 314.342 117.333 320C117.333 326.72 104.981 338.944 85.3333 340.928V298.667C85.3333 281.693 92.0762 265.414 104.079 253.412C116.081 241.409 132.359 234.667 149.333 234.667ZM85.3333 383.552C104.932 382.682 123.689 375.337 138.667 362.667C155.122 376.384 175.852 383.923 197.276 383.981C218.699 384.04 239.47 376.614 256 362.987C272.53 376.614 293.301 384.04 314.724 383.981C336.148 383.923 356.878 376.384 373.333 362.667C388.314 375.33 407.07 382.667 426.667 383.531V469.333H85.3333V383.552Z" fill="#FC91BC"/>
</g>
<defs>
<clipPath id="clip0_0_1">
<rect width="512" height="512" fill="white"/>
</clipPath>
</defs>
</svg>
